<svg width="158" height="65" viewBox="0 0 158 65" fill="none" xmlns="http://www.w3.org/2000/svg">
<path d="M75.8955 37.3446V19.8956C76.0201 12.4475 87.0492 12.4375 87.1763 19.8956V37.3446C87.0467 44.7952 76.0201 44.8027 75.8955 37.3446Z" fill="url(#paint0_linear_23_120)"/>
<path d="M93.9018 11.6083H69.1699C68.5339 11.6229 67.9014 11.5095 67.3096 11.2749C66.7177 11.0403 66.1785 10.6892 65.7236 10.2422C65.2686 9.7951 64.9071 9.26114 64.6603 8.67165C64.4135 8.08216 64.2864 7.44903 64.2864 6.80945C64.2864 6.16987 64.4135 5.53674 64.6603 4.94725C64.9071 4.35777 65.2686 3.82381 65.7236 3.37675C66.1785 2.9297 66.7177 2.57856 67.3096 2.34396C67.9014 2.10936 68.5339 1.99604 69.1699 2.01065H93.9018C95.1489 2.0393 96.3353 2.55747 97.2072 3.45429C98.0791 4.35112 98.5672 5.55539 98.5672 6.80945C98.5672 8.06352 98.0791 9.26778 97.2072 10.1646C96.3353 11.0614 95.1489 11.5796 93.9018 11.6083Z" fill="url(#paint1_linear_23_120)"/>
<path d="M120.58 28.0427C123.833 28.0427 126.471 25.3911 126.471 22.1202C126.471 18.8494 123.833 16.1978 120.58 16.1978C117.327 16.1978 114.689 18.8494 114.689 22.1202C114.689 25.3911 117.327 28.0427 120.58 28.0427Z" fill="url(#paint2_linear_23_120)"/>
<path d="M130.483 33.8373C130.172 33.2237 129.638 32.7546 128.992 32.5281C128.345 32.3016 127.636 32.3354 127.014 32.6223C126.481 32.8645 125.937 33.0933 125.382 33.3087C122.791 34.4181 119.888 34.5481 117.209 33.6747C114.531 32.8012 112.256 30.9833 110.806 28.5563C109.356 26.1293 108.828 23.2569 109.319 20.4689C109.81 17.681 111.287 15.1657 113.478 13.387C114.404 12.5275 115.512 11.8902 116.718 11.5231C118.347 10.9096 120.091 10.6695 121.824 10.8203C123.557 10.9711 125.235 11.5091 126.735 12.3949C127.243 12.7127 127.847 12.8402 128.439 12.755C129.032 12.6698 129.575 12.3773 129.974 11.9289C130.029 11.8638 130.084 11.7937 130.134 11.721L130.149 11.696C130.712 10.8473 131 9.84454 130.974 8.82494C130.974 6.82074 129.906 5.18398 127.772 3.91465C125.637 2.64533 122.621 2.00733 118.724 2.00065C116.085 1.98094 113.464 2.43482 110.984 3.34095C108.627 4.19837 106.476 5.54538 104.672 7.29423C102.825 9.10907 101.377 11.293 100.421 13.7052C99.384 16.2355 98.8657 19.1582 98.8657 22.4735C98.8657 26.046 99.4048 29.1183 100.483 31.6903C101.461 34.1229 102.968 36.3047 104.894 38.0762C106.782 39.774 109.01 41.0467 111.427 41.809C114.013 42.6302 116.71 43.0393 119.421 43.0216C123.355 43.0216 126.285 42.4153 128.21 41.2028C130.136 39.9902 131.097 38.5121 131.096 36.7685C131.118 35.7678 130.911 34.7755 130.493 33.8674L130.483 33.8373Z" fill="url(#paint3_linear_23_120)"/>
<path d="M118.629 10.6012C119.469 10.6018 120.309 10.6637 121.141 10.7865C123.11 10.8385 125.034 11.3919 126.732 12.3949C127.241 12.7127 127.844 12.8402 128.437 12.755C129.029 12.6698 129.573 12.3773 129.972 11.9289C130.027 11.8638 130.082 11.7937 130.131 11.721L130.146 11.696C130.709 10.8473 130.997 9.84454 130.971 8.82494C130.971 6.82074 129.904 5.18398 127.769 3.91465C125.634 2.64533 122.619 2.00733 118.724 2.00065C116.085 1.98094 113.464 2.43482 110.984 3.34095C108.627 4.19837 106.476 5.54538 104.672 7.29423C102.825 9.10907 101.377 11.293 100.421 13.7052C99.384 16.2355 98.8657 19.1582 98.8657 22.4735C98.8657 26.046 99.4048 29.1183 100.483 31.6903C101.352 33.8375 102.627 35.7944 104.238 37.4524C102.526 34.841 101.549 31.8121 101.411 28.6873C101.273 25.5625 101.98 22.4585 103.455 19.7049C104.931 16.9514 107.121 14.651 109.793 13.0481C112.464 11.4452 115.518 10.5996 118.629 10.6012Z" fill="url(#paint4_linear_23_120)"/>
<path d="M70.3212 37.4173C70.3233 38.6802 69.9106 39.9085 69.147 40.9113C68.3835 41.9141 67.312 42.6353 66.0988 42.9629C64.8857 43.2906 63.5989 43.2062 62.4383 42.723C61.2777 42.2398 60.3084 41.3848 59.6808 40.2908L54.6721 31.5626L48.1733 20.2313L47.7023 19.4071L47.4282 18.9061C47.9266 17.0622 49.3844 15.8998 51.166 14.8801C52.4775 14.1135 53.9675 13.7098 55.4845 13.7102C56.255 13.7141 57.0217 13.8202 57.7646 14.0258L69.5586 34.5689C70.0555 35.4353 70.3184 36.4172 70.3212 37.4173Z" fill="url(#paint5_linear_23_120)"/>
<path d="M57.7646 14.0258C57.0143 13.8191 56.24 13.7137 55.4621 13.7127C53.9451 13.7123 52.455 14.116 51.1436 14.8826C49.3719 15.9098 47.655 19.357 47.655 19.357L47.1566 20.2313L40.578 31.6928H36.8901C36.0571 31.6929 35.2343 31.5094 34.4795 31.1554C33.7247 30.8014 33.0562 30.2854 32.521 29.6437C31.9859 29.002 31.5971 28.2503 31.3819 27.4413C31.1668 26.6323 31.1306 25.7858 31.2758 24.9612L33.222 21.5791L42.6912 5.07708C43.1338 4.30212 43.7514 3.64259 44.4942 3.15172C45.2369 2.66085 46.0841 2.35237 46.9672 2.25117C46.9805 2.24998 46.9938 2.24998 47.0071 2.25117C47.1466 2.23613 47.2887 2.22361 47.4257 2.2186H47.8892C48.0313 2.2186 48.1708 2.23613 48.3104 2.25117C48.3236 2.24976 48.337 2.24976 48.3502 2.25117C49.2318 2.3523 50.0775 2.65999 50.8193 3.14949C51.5611 3.63898 52.1783 4.29663 52.6213 5.06957L57.7646 14.0258Z" fill="url(#paint6_linear_23_120)"/>
<path d="M52.2351 33.3738C51.7063 32.8405 51.0779 32.4174 50.386 32.1289C49.6941 31.8404 48.9523 31.6922 48.2033 31.6928H36.8901C36.0572 31.6928 35.2344 31.5094 34.4796 31.1554C33.7247 30.8013 33.0562 30.2853 32.5211 29.6437C31.9859 29.002 31.5971 28.2502 31.382 27.4413C31.1669 26.6323 31.1306 25.7858 31.2759 24.9612L25.7638 34.5688C25.2636 35.4399 25.0002 36.4281 25 37.4339C24.9998 38.4398 25.263 39.428 25.7629 40.2992C26.2629 41.1705 26.9821 41.8942 27.8483 42.3975C28.7146 42.9009 29.6973 43.1662 30.6978 43.1668C30.8517 43.168 31.0057 43.1605 31.1588 43.1443C31.3144 43.1607 31.4708 43.1682 31.6272 43.1668H48.2033C49.3285 43.1652 50.428 42.8287 51.3633 42.1999C52.2986 41.571 53.0278 40.6778 53.459 39.6329C53.8901 38.588 54.004 37.4382 53.7862 36.3284C53.5684 35.2185 53.0287 34.1983 52.2351 33.3964V33.3738Z" fill="url(#paint7_linear_23_120)"/>
<path d="M8 49.4198H13.3905C15.0214 49.4198 16.3068 49.6586 17.2467 50.1361C18.2004 50.6136 18.8846 51.3861 19.2992 52.4535C19.7277 53.5069 19.9419 54.9535 19.9419 56.7934C19.9419 58.6333 19.7277 60.0869 19.2992 61.1544C18.8846 62.2077 18.2004 62.9732 17.2467 63.4507C16.3068 63.9282 15.0214 64.167 13.3905 64.167H8V49.4198ZM13.3905 61.8496C14.3027 61.8496 15.0214 61.6881 15.5466 61.365C16.0719 61.042 16.445 60.5153 16.6662 59.785C16.9012 59.0546 17.0186 58.0574 17.0186 56.7934C17.0186 55.5294 16.9012 54.5322 16.6662 53.8018C16.445 53.0715 16.0719 52.5448 15.5466 52.2218C15.0214 51.8987 14.3027 51.7372 13.3905 51.7372H10.9233V61.8496H13.3905Z" fill="url(#paint8_radial_23_120)"/>
<path d="M36.5681 64.167H33.479L32.5253 60.9015C32.3318 60.2274 32.1383 59.7077 31.9447 59.3426C31.7512 58.9633 31.4886 58.6754 31.1569 58.4788C30.8252 58.2822 30.3829 58.1838 29.83 58.1838H27.7361V64.167H24.8128V49.4198H30.6801C32.4492 49.4198 33.7554 49.7779 34.5985 50.4942C35.4416 51.1965 35.8632 52.299 35.8632 53.8018C35.8632 54.7709 35.6075 55.5504 35.0961 56.1403C34.5985 56.7302 33.9074 57.1094 33.0228 57.2779C33.7277 57.5167 34.2599 57.931 34.6192 58.5209C34.9786 59.1108 35.3103 59.9114 35.6144 60.9226L36.5681 64.167ZM30.763 55.8664C31.3988 55.8664 31.9171 55.6979 32.3179 55.3608C32.7326 55.0097 32.9399 54.49 32.9399 53.8018C32.9399 53.1136 32.7326 52.601 32.3179 52.2639C31.9171 51.9128 31.3988 51.7372 30.763 51.7372H27.7361V55.8664H30.763Z" fill="url(#paint9_radial_23_120)"/>
<path d="M45.5171 64.167C43.6788 64.167 42.3588 63.7737 41.5572 62.9872C40.7555 62.2007 40.3547 61.0631 40.3547 59.5743V54.0125C40.3547 52.5237 40.7555 51.3861 41.5572 50.5996C42.3588 49.8131 43.6788 49.4198 45.5171 49.4198H50.3685V51.7372H45.5171C44.7569 51.7372 44.1902 51.9198 43.817 52.285C43.4577 52.6501 43.278 53.226 43.278 54.0125V55.6347H49.4563V57.9521H43.278V59.5743C43.278 60.3468 43.4577 60.9226 43.817 61.3018C44.1902 61.667 44.7569 61.8496 45.5171 61.8496H50.41V64.167H45.5171Z" fill="url(#paint10_radial_23_120)"/>
<path d="M63.2069 60.733H57.5262L56.5518 64.167H53.6285L57.1738 52.4114C57.4226 51.5687 57.6852 50.9156 57.9616 50.4521C58.238 49.9886 58.5629 49.6586 58.936 49.4619C59.3231 49.2653 59.7999 49.167 60.3666 49.167C60.9333 49.167 61.4032 49.2653 61.7764 49.4619C62.1496 49.6586 62.4744 49.9886 62.7508 50.4521C63.0411 50.9156 63.3106 51.5687 63.5594 52.4114L67.1046 64.167H64.1814L63.2069 60.733ZM62.5642 58.5209L60.8227 52.4535C60.726 52.0883 60.5739 51.9058 60.3666 51.9058C60.1593 51.9058 60.0072 52.0883 59.9105 52.4535L58.1689 58.5209H62.5642Z" fill="url(#paint11_radial_23_120)"/>
<path d="M71.3637 49.4198H72.8772C73.6374 49.4198 74.2455 49.5251 74.7017 49.7358C75.1578 49.9465 75.5517 50.2836 75.8834 50.747C76.2151 51.1965 76.6021 51.8777 77.0444 52.7906L78.2469 55.2555L79.4494 52.7906C79.8917 51.8777 80.2787 51.1965 80.6104 50.747C80.9421 50.2836 81.3361 49.9465 81.7922 49.7358C82.2483 49.5251 82.8564 49.4198 83.6166 49.4198H85.1301V64.167H82.4763V52.5167C82.3105 52.5167 82.1723 52.594 82.0617 52.7485C81.9511 52.9029 81.7853 53.1768 81.5641 53.5701L78.2469 59.8271L74.9297 53.5701C74.7086 53.1768 74.5427 52.9029 74.4321 52.7485C74.3216 52.594 74.1833 52.5097 74.0175 52.4956V64.167H71.3637V49.4198Z" fill="url(#paint12_radial_23_120)"/>
<path d="M93.7545 51.7372H89.38V49.4198H101.052V51.7372H96.6778V64.167H93.7545V51.7372Z" fill="url(#paint13_radial_23_120)"/>
<path d="M109.387 64.167C107.549 64.167 106.229 63.7737 105.427 62.9872C104.625 62.2007 104.225 61.0631 104.225 59.5743V54.0125C104.225 52.5237 104.625 51.3861 105.427 50.5996C106.229 49.8131 107.549 49.4198 109.387 49.4198H114.238V51.7372H109.387C108.627 51.7372 108.06 51.9198 107.687 52.285C107.328 52.6501 107.148 53.226 107.148 54.0125V55.6347H113.326V57.9521H107.148V59.5743C107.148 60.3468 107.328 60.9226 107.687 61.3018C108.06 61.667 108.627 61.8496 109.387 61.8496H114.28V64.167H109.387Z" fill="url(#paint14_radial_23_120)"/>
<path d="M127.077 60.733H121.396L120.422 64.167H117.498L121.044 52.4114C121.292 51.5687 121.555 50.9156 121.832 50.4521C122.108 49.9886 122.433 49.6586 122.806 49.4619C123.193 49.2653 123.67 49.167 124.236 49.167C124.803 49.167 125.273 49.2653 125.646 49.4619C126.019 49.6586 126.344 49.9886 126.621 50.4521C126.911 50.9156 127.18 51.5687 127.429 52.4114L130.975 64.167H128.051L127.077 60.733ZM126.434 58.5209L124.693 52.4535C124.596 52.0883 124.444 51.9058 124.236 51.9058C124.029 51.9058 123.877 52.0883 123.78 52.4535L122.039 58.5209H126.434Z" fill="url(#paint15_radial_23_120)"/>
<path d="M135.234 49.4198H136.747C137.507 49.4198 138.115 49.5251 138.572 49.7358C139.028 49.9465 139.422 50.2836 139.753 50.747C140.085 51.1965 140.472 51.8777 140.914 52.7906L142.117 55.2555L143.319 52.7906C143.762 51.8777 144.149 51.1965 144.48 50.747C144.812 50.2836 145.206 49.9465 145.662 49.7358C146.118 49.5251 146.726 49.4198 147.487 49.4198H149V64.167H146.346V52.5167C146.18 52.5167 146.042 52.594 145.932 52.7485C145.821 52.9029 145.655 53.1768 145.434 53.5701L142.117 59.8271L138.8 53.5701C138.578 53.1768 138.413 52.9029 138.302 52.7485C138.191 52.594 138.053 52.5097 137.887 52.4956V64.167H135.234V49.4198Z" fill="url(#paint16_radial_23_120)"/>
<defs>
<linearGradient id="paint0_linear_23_120" x1="81.5346" y1="14.3064" x2="81.5346" y2="42.9338" gradientUnits="userSpaceOnUse">
<stop stop-color="#00564B"/>
<stop offset="0.66" stop-color="#00954B"/>
<stop offset="1" stop-color="#00B04B"/>
</linearGradient>
<linearGradient id="paint1_linear_23_120" x1="64.3954" y1="6.8082" x2="98.6738" y2="6.8082" gradientUnits="userSpaceOnUse">
<stop stop-color="#00564B"/>
<stop offset="0.13" stop-color="#005D4B"/>
<stop offset="0.31" stop-color="#00704B"/>
<stop offset="0.53" stop-color="#00904B"/>
<stop offset="0.72" stop-color="#00B04B"/>
</linearGradient>
<linearGradient id="paint2_linear_23_120" x1="114.689" y1="22.1202" x2="126.468" y2="22.1202" gradientUnits="userSpaceOnUse">
<stop stop-color="#F88F33"/>
<stop offset="1" stop-color="#F85233"/>
</linearGradient>
<linearGradient id="paint3_linear_23_120" x1="114.981" y1="2.00065" x2="114.981" y2="43.0166" gradientUnits="userSpaceOnUse">
<stop offset="0.21" stop-color="#00564B"/>
<stop offset="0.35" stop-color="#005E4B"/>
<stop offset="0.57" stop-color="#00734B"/>
<stop offset="0.83" stop-color="#00954B"/>
<stop offset="1" stop-color="#00B04B"/>
</linearGradient>
<linearGradient id="paint4_linear_23_120" x1="98.8657" y1="19.7228" x2="130.969" y2="19.7228" gradientUnits="userSpaceOnUse">
<stop stop-color="#00564B"/>
<stop offset="0.13" stop-color="#005C4B"/>
<stop offset="0.3" stop-color="#006C4B"/>
<stop offset="0.5" stop-color="#00884B"/>
<stop offset="0.7" stop-color="#00AD4B"/>
<stop offset="0.72" stop-color="#00B04B"/>
</linearGradient>
<linearGradient id="paint5_linear_23_120" x1="58.8685" y1="13.7127" x2="58.8685" y2="43.1594" gradientUnits="userSpaceOnUse">
<stop stop-color="#00564B"/>
<stop offset="0.02" stop-color="#00594B"/>
<stop offset="0.22" stop-color="#007F4B"/>
<stop offset="0.42" stop-color="#009A4B"/>
<stop offset="0.59" stop-color="#00AA4B"/>
<stop offset="0.72" stop-color="#00B04B"/>
</linearGradient>
<linearGradient id="paint6_linear_23_120" x1="31.1886" y1="16.9545" x2="57.7646" y2="16.9545" gradientUnits="userSpaceOnUse">
<stop stop-color="#00564B"/>
<stop offset="0.13" stop-color="#005F4B"/>
<stop offset="0.34" stop-color="#00774B"/>
<stop offset="0.61" stop-color="#009F4B"/>
<stop offset="0.72" stop-color="#00B04B"/>
</linearGradient>
<linearGradient id="paint7_linear_23_120" x1="24.9988" y1="34.0603" x2="53.9047" y2="34.0603" gradientUnits="userSpaceOnUse">
<stop stop-color="#00564B"/>
<stop offset="0.1" stop-color="#00674B"/>
<stop offset="0.37" stop-color="#008F4B"/>
<stop offset="0.59" stop-color="#00A74B"/>
<stop offset="0.72" stop-color="#00B04B"/>
</linearGradient>
<radialGradient id="paint8_radial_23_120" cx="0" cy="0" r="1" gradientUnits="userSpaceOnUse" gradientTransform="translate(78.5 56.667) scale(125.5 13.3511)">
<stop stop-color="#DAA520"/>
<stop offset="1" stop-color="#745811"/>
</radialGradient>
<radialGradient id="paint9_radial_23_120" cx="0" cy="0" r="1" gradientUnits="userSpaceOnUse" gradientTransform="translate(78.5 56.667) scale(125.5 13.3511)">
<stop stop-color="#DAA520"/>
<stop offset="1" stop-color="#745811"/>
</radialGradient>
<radialGradient id="paint10_radial_23_120" cx="0" cy="0" r="1" gradientUnits="userSpaceOnUse" gradientTransform="translate(78.5 56.667) scale(125.5 13.3511)">
<stop stop-color="#DAA520"/>
<stop offset="1" stop-color="#745811"/>
</radialGradient>
<radialGradient id="paint11_radial_23_120" cx="0" cy="0" r="1" gradientUnits="userSpaceOnUse" gradientTransform="translate(78.5 56.667) scale(125.5 13.3511)">
<stop stop-color="#DAA520"/>
<stop offset="1" stop-color="#745811"/>
</radialGradient>
<radialGradient id="paint12_radial_23_120" cx="0" cy="0" r="1" gradientUnits="userSpaceOnUse" gradientTransform="translate(78.5 56.667) scale(125.5 13.3511)">
<stop stop-color="#DAA520"/>
<stop offset="1" stop-color="#745811"/>
</radialGradient>
<radialGradient id="paint13_radial_23_120" cx="0" cy="0" r="1" gradientUnits="userSpaceOnUse" gradientTransform="translate(78.5 56.667) scale(125.5 13.3511)">
<stop stop-color="#DAA520"/>
<stop offset="1" stop-color="#745811"/>
</radialGradient>
<radialGradient id="paint14_radial_23_120" cx="0" cy="0" r="1" gradientUnits="userSpaceOnUse" gradientTransform="translate(78.5 56.667) scale(125.5 13.3511)">
<stop stop-color="#DAA520"/>
<stop offset="1" stop-color="#745811"/>
</radialGradient>
<radialGradient id="paint15_radial_23_120" cx="0" cy="0" r="1" gradientUnits="userSpaceOnUse" gradientTransform="translate(78.5 56.667) scale(125.5 13.3511)">
<stop stop-color="#DAA520"/>
<stop offset="1" stop-color="#745811"/>
</radialGradient>
<radialGradient id="paint16_radial_23_120" cx="0" cy="0" r="1" gradientUnits="userSpaceOnUse" gradientTransform="translate(78.5 56.667) scale(125.5 13.3511)">
<stop stop-color="#DAA520"/>
<stop offset="1" stop-color="#745811"/>
</radialGradient>
</defs>
</svg>
